<svg width="320" height="172" viewBox="0 0 320 172" fill="none" xmlns="http://www.w3.org/2000/svg">
<path d="M148.373 21.6241C141.764 27.1943 187.642 15.5338 183.052 38.1347C178.622 59.9056 134.774 33.5445 86.7662 35.7846C65.5171 36.7847 46.038 42.8749 33.6385 58.0255C46.6079 43.2349 72.2868 46.7851 65.6271 56.9355C49.9478 80.6464 20.5791 63.5457 0 109.968C2.44989 104.607 9.11959 94.0369 37.9183 89.6068C59.0674 86.3666 94.1158 89.3968 105.305 106.887C117.595 126.168 55.1576 123.978 89.736 127.888C137.654 133.298 173.692 172 220.57 172C281.248 172 319.526 141.069 319.996 90.0768C320.826 -2.21686 198.641 -20.8176 148.393 21.6341L148.373 21.6241ZM238.619 122.358C222.69 121.878 206.541 115.528 193.781 109.278C162.223 93.8669 149.253 88.5467 149.253 87.8267C149.253 86.9367 168.213 94.2769 200.091 77.3063C218.53 67.5059 219.2 58.9756 238.619 57.2555C261.698 55.2154 278.098 72.3061 278.098 90.2668C278.098 108.297 261.858 122.978 238.619 122.358Z" fill="white"/>
</svg>
